<svg id="Layer_1" data-name="Layer 1" xmlns="http://www.w3.org/2000/svg" viewBox="0 0 126.56 201.12"><defs><style>.cls-1{fill:#34803e;}.cls-2{fill:#426846;}.cls-3{fill:#dccdb8;}.cls-4{fill:#3d9244;}.cls-5{fill:#6db044;}.cls-6{fill:#224c24;}.cls-7{fill:#619f43;}</style></defs><title>kale</title><path class="cls-1" d="M72.65,25.1c0-1.17,6.44-3.31,7.83,3.07a10,10,0,0,1-1.71,7.43,11.88,11.88,0,0,1,6.66,8.53,12.55,12.55,0,0,1-3,10.61A11.42,11.42,0,0,1,86.62,64a11.8,11.8,0,0,1-5,9.06c2.49,1.59,4.27,9.14-3.52,13.55,0,0,8.3,8.6-2.86,19.92-5.39,5.46-5.58,5.78-10.95,15.7-1.4,2.59-2.31,4-4.77,4.06-1.8.07-3.16-1.31-4-2.94-2.53-5-4.09-7.6-9.78-12.46-3.23-2.76-6.07-5.59-7.88-9.44-2.06-4.38-.44-9.72,2.53-11.81a9.51,9.51,0,0,1-7.83-6c-1.11-2.95-.56-6.68,2.08-8.39C30.1,74,26.21,67,27.28,62.16a12.27,12.27,0,0,1,7-8.5c-2.53-1.69-4.93-5.2-4.71-8.61.3-4.5,3.48-9.48,9.5-9.81-2.26-1.64-4.29-6.21-2.34-9.81a8,8,0,0,1,9-4S46.69,6.54,58.17,5.92C67.5,5.42,72.24,13.24,72.65,25.1Z" transform="translate(-6.21 -5.9)"/><path class="cls-2" d="M58.88,28.57s-3.63,76.28-3,97.77c.7,25.83,2.68,51.46,2.68,51.46l12.84,11,0-15s-6.24-40.43-8.54-68.61C61.11,84.07,58.88,28.57,58.88,28.57Z" transform="translate(-6.21 -5.9)"/><polygon class="cls-2" points="40.27 33.31 51.21 47.46 51.22 47.47 52.45 48.64 53.27 47.39 62.3 33.56 51.16 45.76 53.2 45.68 53.2 45.67 40.27 33.31"/><path class="cls-3" d="M42,55.76c1.18,1.42,2.45,2.73,3.71,4.06s2.57,2.59,3.89,3.84c2.63,2.52,5.35,4.93,8.11,7.29l1,.83.85-.93c1.18-1.3,2.39-2.56,3.55-3.88s2.33-2.62,3.45-4,2.24-2.71,3.33-4.09S72,56.12,73,54.65c-1.41,1.08-2.74,2.23-4.07,3.39S66.3,60.39,65,61.6,62.51,64,61.26,65.27,58.81,67.78,57.59,69l1.83-.1C56.66,66.57,53.85,64.26,51,62c-1.44-1.11-2.91-2.19-4.4-3.25S43.56,56.71,42,55.76Z" transform="translate(-6.21 -5.9)"/><path class="cls-3" d="M42.55,76.11c1.2,1.1,2.46,2.11,3.72,3.11s2.55,2,3.86,2.9,2.62,1.86,3.94,2.77,2.68,1.76,4,2.65l.87.57.77-.74c2.46-2.37,4.87-4.79,7.18-7.31,1.16-1.25,2.3-2.54,3.41-3.84s2.2-2.63,3.22-4c-1.44,1-2.79,2-4.15,3.08s-2.66,2.16-4,3.28c-2.6,2.23-5.1,4.55-7.55,6.93l1.63-.17c-1.37-.83-2.72-1.7-4.11-2.51s-2.77-1.63-4.18-2.39-2.83-1.52-4.27-2.25S44.05,76.73,42.55,76.11Z" transform="translate(-6.21 -5.9)"/><path class="cls-3" d="M45.24,92.72c1,1.11,2,2.16,3,3.19s2.1,2,3.19,3,2.17,1.94,3.28,2.88,2.24,1.86,3.36,2.78l.86.7.87-.78c1.1-1,2.13-2.06,3.2-3.09s2.07-2.12,3.08-3.21,2-2.21,2.94-3.35,1.89-2.31,2.74-3.56c-1.29.79-2.49,1.68-3.69,2.57s-2.35,1.83-3.49,2.78-2.26,1.93-3.35,2.92-2.19,2-3.24,3l1.73-.08c-1.16-.88-2.29-1.79-3.48-2.63s-2.35-1.71-3.56-2.53S50.28,95.74,49,94.95,46.55,93.41,45.24,92.72Z" transform="translate(-6.21 -5.9)"/><path class="cls-4" d="M64.35,28.7c0-1.22-6.78-3.25-8,3.41a10.38,10.38,0,0,0,2,7.66,12.33,12.33,0,0,0-6.67,9A13,13,0,0,0,55.1,59.75,11.86,11.86,0,0,0,51,69.52a12.25,12.25,0,0,0,5.41,9.26c-2.54,1.72-4.16,9.61,4,14,0,0-8.36,9.17,3.55,20.59,5.75,5.51,6,5.84,11.82,16,1.53,2.65,2.51,4.05,5.07,4.08,1.87,0,3.24-1.46,4.05-3.17,2.48-5.26,4-8,9.78-13.22,3.27-3,6.13-6,7.9-10,2-4.6.17-10.1-3-12.19a9.87,9.87,0,0,0,7.95-6.46c1.07-3.09.39-6.95-2.41-8.65,4.76-1.45,8.58-8.87,7.33-13.83A12.73,12.73,0,0,0,105,57.23c2.58-1.83,5-5.54,4.64-9.07-.44-4.66-3.88-9.74-10.14-9.91,2.3-1.77,4.27-6.57,2.15-10.25a8.29,8.29,0,0,0-9.46-3.85S90.75,8.68,78.82,8.38C69.13,8.13,64.43,16.38,64.35,28.7Z" transform="translate(-6.21 -5.9)"/><path class="cls-2" d="M78.74,31.9s8.68,82.16,6.67,104.39C83,162.71,74.93,195.6,74.93,195.6l-6.05,8.08L66,181.23s9.27-40.41,10.84-69.72C78,89.56,78.74,31.9,78.74,31.9Z" transform="translate(-6.21 -5.9)"/><polygon class="cls-2" points="85.71 36.68 74.77 51.68 74.76 51.69 73.52 52.95 72.63 51.67 62.86 37.58 74.77 49.92 72.65 49.9 72.66 49.88 85.71 36.68"/><path class="cls-2" d="M97.07,59.63c-1.18,1.5-2.46,2.91-3.73,4.32s-2.59,2.76-3.92,4.1c-2.65,2.69-5.4,5.28-8.2,7.81l-1,.89-.91-.94c-1.26-1.31-2.56-2.59-3.8-3.92s-2.49-2.65-3.69-4-2.4-2.75-3.58-4.14-2.31-2.83-3.39-4.33c1.49,1.08,2.91,2.24,4.33,3.4s2.79,2.36,4.14,3.58,2.69,2.46,4,3.7,2.61,2.54,3.92,3.8l-1.9,0c2.79-2.54,5.64-5,8.58-7.4,1.46-1.2,3-2.36,4.47-3.5S95.46,60.66,97.07,59.63Z" transform="translate(-6.21 -5.9)"/><path class="cls-2" d="M97.08,80.76c-1.22,1.17-2.49,2.26-3.77,3.34s-2.59,2.12-3.92,3.12-2.67,2-4,3-2.73,1.91-4.09,2.86l-.88.62-.82-.74c-2.62-2.39-5.19-4.83-7.67-7.37-1.24-1.27-2.46-2.57-3.65-3.88s-2.36-2.67-3.46-4.1c1.52,1,3,2,4.4,3.07s2.83,2.16,4.2,3.29c2.76,2.23,5.43,4.57,8,7l-1.7-.12c1.4-.9,2.77-1.85,4.19-2.72s2.82-1.77,4.27-2.6,2.9-1.66,4.36-2.46S95.54,81.45,97.08,80.76Z" transform="translate(-6.21 -5.9)"/><path class="cls-2" d="M94.77,98.08c-1,1.18-2,2.3-3.06,3.4s-2.12,2.18-3.22,3.21-2.2,2.08-3.32,3.09-2.27,2-3.41,3l-.87.75-.92-.79c-1.17-1-2.27-2.07-3.41-3.11s-2.21-2.14-3.29-3.24-2.13-2.23-3.15-3.39-2-2.35-2.95-3.62c1.36.78,2.63,1.67,3.91,2.56s2.49,1.83,3.7,2.78,2.4,1.93,3.57,2.93,2.34,2,3.45,3.06l-1.79,0c1.17-1,2.33-1.92,3.54-2.83s2.39-1.85,3.62-2.73,2.47-1.75,3.73-2.61S93.43,98.84,94.77,98.08Z" transform="translate(-6.21 -5.9)"/><path class="cls-5" d="M49.39,55.87c-.16-1.21,6.32-4.08,8.4,2.38a10.39,10.39,0,0,1-1,7.85,12.33,12.33,0,0,1,7.75,8.14,13,13,0,0,1-2.06,11.27,11.86,11.86,0,0,1,5.31,9.18,12.25,12.25,0,0,1-4.2,9.87c2.74,1.39,5.33,9-2.26,14.35,0,0,9.45,8-.94,20.87-5,6.19-5.18,6.54-9.72,17.34-1.19,2.82-2,4.33-4.52,4.68-1.86.25-3.4-1-4.42-2.64-3.12-4.91-5-7.44-11.36-11.88-3.61-2.52-6.83-5.16-9.1-9-2.57-4.32-1.43-10,1.42-12.46a9.87,9.87,0,0,1-8.7-5.41c-1.45-2.94-1.26-6.84,1.3-8.88-4.9-.84-9.63-7.72-9-12.81a12.73,12.73,0,0,1,6.38-9.49C9.86,87.79,7,84.4,6.91,80.86c-.15-4.68,2.63-10.15,8.82-11.1-2.51-1.46-5.06-6-3.42-9.9a8.29,8.29,0,0,1,8.91-5s-.53-15.52,11.27-17.32C42.07,36.07,47.76,43.66,49.39,55.87Z" transform="translate(-6.21 -5.9)"/><path class="cls-6" d="M35.51,60.86s1.7,82.6,6.48,104.4C47.68,191.17,66.08,207,66.08,207h3.41V184.39s-16.9-15.9-22.14-44.79C43.44,118,35.51,60.86,35.51,60.86Z" transform="translate(-6.21 -5.9)"/><polygon class="cls-6" points="17.57 67.21 32.38 78.44 32.39 78.45 29.82 78.8 40.35 65.23 32.68 80.61 31.85 82.27 30.11 80.95 30.1 80.94 17.57 67.21"/><path class="cls-6" d="M20.81,90.67c1.77.76,3.44,1.66,5.13,2.55s3.31,1.85,4.92,2.84c3.24,2,6.38,4,9.47,6.21l-2.29.35c1.15-1.41,2.25-2.86,3.43-4.25S43.8,95.57,45,94.22s2.46-2.7,3.73-4,2.58-2.6,4-3.82C51.91,88,51,89.61,50,91.19s-1.93,3.11-3,4.61-2.07,3-3.12,4.49-2.18,2.92-3.26,4.38l-1,1.28L38.4,105c-3.1-2.16-6.14-4.39-9.08-6.76-1.48-1.18-2.92-2.4-4.36-3.65S22.13,92.07,20.81,90.67Z" transform="translate(-6.21 -5.9)"/><path class="cls-6" d="M23.45,111.63c1.65.43,3.23,1,4.82,1.53s3.14,1.16,4.68,1.82,3.06,1.32,4.59,2,3,1.41,4.51,2.15l-2,.41c1.14-1.36,2.31-2.69,3.49-4s2.4-2.61,3.66-3.87,2.52-2.51,3.82-3.73,2.65-2.4,4.09-3.5c-.85,1.6-1.83,3.1-2.8,4.6s-2,2.94-3.07,4.37S47,116.23,46,117.64s-2.24,2.75-3.4,4.09l-.87,1-1.17-.6c-1.48-.76-3-1.53-4.41-2.35s-2.91-1.62-4.33-2.51-2.84-1.76-4.24-2.69S24.77,112.7,23.45,111.63Z" transform="translate(-6.21 -5.9)"/><path class="cls-6" d="M27.92,128.53c1.45.53,2.85,1.16,4.23,1.8s2.74,1.32,4.07,2,2.66,1.44,4,2.21,2.61,1.53,3.88,2.34l-2.18.32c2-2.36,4.07-4.61,6.25-6.79,1.1-1.08,2.23-2.14,3.39-3.16a45.19,45.19,0,0,1,3.67-2.92,45.09,45.09,0,0,1-2.35,4.06c-.84,1.31-1.72,2.58-2.63,3.82-1.83,2.48-3.75,4.89-5.79,7.18l-1,1.1-1.2-.79c-1.26-.83-2.51-1.67-3.74-2.56s-2.46-1.76-3.66-2.69-2.38-1.88-3.55-2.86S29,129.63,27.92,128.53Z" transform="translate(-6.21 -5.9)"/><path class="cls-7" d="M89.6,55.87c.16-1.21-6.32-4.08-8.4,2.38a10.38,10.38,0,0,0,1,7.85,12.33,12.33,0,0,0-7.75,8.14,13,13,0,0,0,2.06,11.27,11.86,11.86,0,0,0-5.31,9.18,12.25,12.25,0,0,0,4.2,9.87c-2.74,1.39-5.33,9,2.26,14.35,0,0-9.45,8,.94,20.87,5,6.19,5.18,6.54,9.72,17.34,1.19,2.82,2,4.33,4.52,4.68,1.86.25,3.4-1,4.42-2.64,3.12-4.91,5-7.44,11.36-11.88,3.61-2.52,6.83-5.16,9.1-9,2.57-4.32,1.43-10-1.42-12.46a9.87,9.87,0,0,0,8.7-5.41c1.45-2.94,1.26-6.84-1.3-8.88,4.9-.84,9.63-7.72,9-12.81a12.73,12.73,0,0,0-6.38-9.49c2.79-1.49,5.63-4.88,5.74-8.42.15-4.68-2.63-10.15-8.82-11.1,2.51-1.46,5.06-6,3.42-9.9a8.29,8.29,0,0,0-8.91-5s.53-15.52-11.27-17.32C96.92,36.07,91.23,43.66,89.6,55.87Z" transform="translate(-6.21 -5.9)"/><path class="cls-6" d="M103.48,60.86s-1.7,82.6-6.48,104.4C91.3,191.17,72.91,207,72.91,207H69.49V184.39s16.9-15.9,22.14-44.79C95.55,118,103.48,60.86,103.48,60.86Z" transform="translate(-6.21 -5.9)"/><polygon class="cls-6" points="108.99 67.21 96.47 80.94 96.45 80.95 94.71 82.27 93.88 80.61 86.21 65.23 96.74 78.8 94.17 78.45 94.18 78.44 108.99 67.21"/><path class="cls-6" d="M118.18,90.67c-1.32,1.4-2.74,2.67-4.15,3.94s-2.88,2.47-4.36,3.65c-2.94,2.37-6,4.61-9.08,6.76l-1.34.94-1-1.28c-1.08-1.46-2.21-2.89-3.26-4.38s-2.12-3-3.12-4.49-2-3.06-3-4.61S87.08,88,86.25,86.38c1.4,1.22,2.69,2.52,4,3.82s2.53,2.65,3.73,4,2.39,2.75,3.57,4.14,2.28,2.84,3.43,4.25l-2.29-.35c3.09-2.17,6.23-4.26,9.47-6.21,1.61-1,3.26-1.92,4.92-2.84S116.41,91.43,118.18,90.67Z" transform="translate(-6.21 -5.9)"/><path class="cls-6" d="M115.54,111.63c-1.32,1.07-2.71,2-4.09,3s-2.8,1.84-4.24,2.69-2.88,1.68-4.33,2.51-2.93,1.59-4.41,2.35l-1.17.6-.87-1c-1.16-1.34-2.28-2.71-3.4-4.09s-2.2-2.79-3.23-4.23-2.07-2.89-3.07-4.37-1.95-3-2.8-4.6c1.45,1.1,2.76,2.3,4.09,3.5s2.58,2.46,3.82,3.73,2.44,2.58,3.66,3.87,2.35,2.65,3.49,4l-2-.41c1.49-.74,3-1.47,4.51-2.15s3-1.38,4.59-2,3.11-1.24,4.68-1.82S113.89,112.06,115.54,111.63Z" transform="translate(-6.21 -5.9)"/><path class="cls-6" d="M111.07,128.53c-1.09,1.1-2.23,2.11-3.39,3.1s-2.34,2-3.55,2.86-2.42,1.82-3.66,2.69-2.48,1.73-3.74,2.56l-1.2.79-1-1.1c-2-2.3-4-4.71-5.8-7.18-.91-1.25-1.79-2.52-2.63-3.82a45.2,45.2,0,0,1-2.35-4.06,45.15,45.15,0,0,1,3.67,2.92c1.17,1,2.29,2.08,3.39,3.16,2.18,2.18,4.28,4.43,6.26,6.79l-2.18-.32c1.28-.81,2.57-1.59,3.88-2.34s2.62-1.51,4-2.21,2.7-1.38,4.07-2S109.61,129.06,111.07,128.53Z" transform="translate(-6.21 -5.9)"/></svg>