<?xml version="1.0" encoding="iso-8859-1"?>
<!-- Generator: Adobe Illustrator 19.0.0, SVG Export Plug-In . SVG Version: 6.00 Build 0)  -->
<svg version="1.1" id="Layer_1" xmlns="http://www.w3.org/2000/svg" xmlns:xlink="http://www.w3.org/1999/xlink" x="0px" y="0px"
	 viewBox="0 0 497.121 497.121" style="enable-background:new 0 0 497.121 497.121;" xml:space="preserve">
<path style="fill:#B6B784;" d="M393.897,34.997c0,22.276-65.063,40.338-145.337,40.338c-80.282,0-145.337-18.062-145.337-40.338
	C103.223,12.705,168.279,0,248.56,0C328.834-0.008,393.897,12.705,393.897,34.997z"/>
<path style="fill:#28AF89;" d="M417.914,439.564c0,31.453-22.827,56.816-54.272,56.816H133.478
	c-31.453,0-54.272-25.364-54.272-56.816V133.459c0-31.437,22.819-54.556,54.272-54.556h230.164
	c31.445,0,54.272,23.119,54.272,54.556V439.564z"/>
<path id="SVGCleanerId_0" style="fill:#1A9684;" d="M76.52,134.648c0-31.437,25.505-55.745,56.95-55.745h230.172
	c31.445,0,54.272,23.119,54.272,54.556v306.105c0,31.453-24.166,57.557-55.611,57.557"/>
<g>
	<path id="SVGCleanerId_0_1_" style="fill:#1A9684;" d="M76.52,134.648c0-31.437,25.505-55.745,56.95-55.745h230.172
		c31.445,0,54.272,23.119,54.272,54.556v306.105c0,31.453-24.166,57.557-55.611,57.557"/>
</g>
<path style="fill:#B6B784;" d="M437.606,130.292c0,49.365-305.317-44.292-338.534,45.875c-36.1,97.973-39.558,3.489-39.558-45.875
	c0-29.995,31.256-56.541,79.202-72.751c30.964-10.468,68.072,1.575,109.048,1.575c43.536,0,84.441-11.24,116.397,0.457
	C408.84,75.926,437.606,101.518,437.606,130.292z"/>
<path style="fill:#C2C693;" d="M197.557,112.112c89.435,0,191.929,18.905,239.553,12.012c-3.773-26.246-31.492-49.388-72.948-64.551
	c-31.957-11.689-72.862-0.457-116.397-0.457c-40.976,0-78.084-12.044-109.048-1.575c-45.064,15.25-75.351,39.582-78.848,67.356
	C87.469,122.14,132.289,112.112,197.557,112.112z"/>
<g>
	<circle style="fill:#1A9684;" cx="225.426" cy="423.542" r="42.118"/>
	<circle style="fill:#1A9684;" cx="128.138" cy="425.96" r="23.135"/>
</g>
<circle style="fill:#28AF89;" cx="315.593" cy="188.637" r="12.461"/>
<circle style="fill:#0D7D7F;" cx="336.947" cy="354.753" r="23.135"/>
<g>
	<path style="fill:#1A9684;" d="M192.524,272.943c-33.296,31.09-50.625,66.623-64.725,51.531
		c-14.084-15.076,1.473-52.5,34.745-83.59s71.68-44.071,85.756-29.011C262.4,226.966,225.788,241.861,192.524,272.943z"/>
	<path style="fill:#1A9684;" d="M157.724,209.195c-28.278,18.204-45.552,41.732-53.823,28.924
		c-8.239-12.816,7.995-37.967,36.265-56.17c28.278-18.204,57.88-22.56,66.119-9.775C214.54,184.997,185.986,190.992,157.724,209.195
		z"/>
	<path style="fill:#1A9684;" d="M271.395,317.282c-47.695,27.719-77.777,64.985-90.372,43.347
		c-12.548-21.606,15.935-61.621,63.638-89.34c47.734-27.719,96.587-32.658,109.151-11.043
		C366.375,281.884,319.106,289.564,271.395,317.282z"/>
</g>
<g>
	<path style="fill:#0D7D7F;" d="M162.544,240.876c-0.205,0.189-0.402,0.394-0.614,0.591l27.372,34.595
		c1.056-1.048,2.111-2.079,3.222-3.119c33.264-31.074,69.876-45.978,55.777-61.07C234.224,196.813,195.816,209.786,162.544,240.876z
		"/>
	<path style="fill:#0D7D7F;" d="M140.166,181.949c-5.829,3.757-11.122,7.814-15.809,11.981l19.732,24.938
		c4.23-3.237,8.767-6.546,13.643-9.681c28.262-18.204,56.816-24.198,48.561-37.022C198.038,159.39,168.444,163.745,140.166,181.949z
		"/>
	<path style="fill:#0D7D7F;" d="M244.661,271.289c-14.383,8.365-26.986,17.873-37.297,27.624l31.539,39.881
		c9.728-7.058,20.567-14.596,32.492-21.512c47.711-27.719,94.98-35.399,82.424-57.037
		C341.248,238.631,292.395,243.57,244.661,271.289z"/>
</g>
<g>
	<circle style="fill:#28AF89;" cx="242.038" cy="163.722" r="4.151"/>
	<circle style="fill:#28AF89;" cx="281.186" cy="188.637" r="8.893"/>
	<circle style="fill:#28AF89;" cx="387.352" cy="205.8" r="9.492"/>
</g>
<circle style="fill:#1A9684;" cx="110.95" cy="352.965" r="8.302"/>
<g>
	<circle style="fill:#0D7D7F;" cx="341.665" cy="418.792" r="5.341"/>
	<circle style="fill:#0D7D7F;" cx="391.526" cy="402.172" r="11.272"/>
</g>
<g>
	<path style="fill:#D7DDAB;" d="M324.848,98.17c0,6.057-45.308,1.922-101.211,1.922c-55.887,0-101.195,4.128-101.195-1.922
		c0-6.065,45.308-10.98,101.195-10.98C279.54,87.198,324.848,92.113,324.848,98.17z"/>
	<circle style="fill:#D7DDAB;" cx="357.734" cy="104.393" r="7.712"/>
	<circle style="fill:#D7DDAB;" cx="382.625" cy="110.883" r="4.159"/>
</g>
<path style="fill:#7F6849;" d="M389.155,59.219c0,5.246-4.254,11.808-9.5,11.808H117.457c-5.246,0-9.5-6.561-9.5-11.808l0,0
	c0.008-5.262,4.254-11.823,9.5-11.823h262.199C384.91,47.395,389.155,53.957,389.155,59.219L389.155,59.219z"/>
<path style="fill:#634C32;" d="M389.155,59.219c0,5.246-4.254,11.808-9.5,11.808H117.457c-5.246,0-9.5-6.561-9.5-11.808l0,0
	c0.008-5.262,4.254-11.823,9.5-11.823h262.199C384.91,47.395,389.155,53.957,389.155,59.219L389.155,59.219z"/>
<path style="fill:#7F6849;" d="M379.664,47.395H117.457c-3.868,0-7.979,4.183-8.641,7.877c1.481,3.308,4.773,7.877,8.641,7.877
	h262.199c3.868,0,7.152-4.569,8.641-7.877C387.391,51.46,383.523,47.395,379.664,47.395z"/>
<path style="fill:#C2C693;" d="M364.052,23.135c0,5.451-51.712,3.56-115.491,3.56s-115.491,1.89-115.491-3.56
	S184.781,6.916,248.56,6.916S364.052,17.684,364.052,23.135z"/>
<g>
</g>
<g>
</g>
<g>
</g>
<g>
</g>
<g>
</g>
<g>
</g>
<g>
</g>
<g>
</g>
<g>
</g>
<g>
</g>
<g>
</g>
<g>
</g>
<g>
</g>
<g>
</g>
<g>
</g>
</svg>
