<svg id="Layer_1" data-name="Layer 1" xmlns="http://www.w3.org/2000/svg" viewBox="0 0 108.65 125.05"><defs><style>.cls-1{fill:#007b38;}.cls-2{fill:#005d26;}.cls-3{fill:#40a643;}.cls-4{fill:#007736;}.cls-5{fill:#00ad4d;}</style></defs><title>spinach</title><path class="cls-1" d="M92.12,59.29a45.82,45.82,0,0,1-10.37,9.21c-2.57,1.69-12.45,8.58-17,13.46-1.18,1.27,1.56-20.71,4.56-31.36,2.06-7.32,7.7-18.46,17.38-22,4.5-1.64,8.61-2.41,11.64-.76C102,29.88,104.24,44.28,92.12,59.29Z" transform="translate(-2.83 -3)"/><path class="cls-2" d="M91.86,37.79A213.71,213.71,0,0,0,67.83,73c-12.33,23.29-12.86,29-13.48,34-.17,1.38,3.57,7.4,3.59,7.18.17-1.92.65-19.64,12.65-41.86C79.81,55.22,91.86,37.79,91.86,37.79Z" transform="translate(-2.83 -3)"/><path class="cls-1" d="M60.23,16.29a40.58,40.58,0,0,1,1.13,18.57C58.46,53,50.73,61.37,49.07,69.09c-.28,1.31.13,1.93-1,1.94-.77,0-.81-1.41-.9-2.2C46.62,64.09,38,48.36,36.38,36.35c-.89-6.8-.87-13.7,1.65-20.13C40,11.33,45,3,50.38,3,56.09,3,59.58,14.22,60.23,16.29Z" transform="translate(-2.83 -3)"/><path class="cls-2" d="M42.2,23.47c1.24,1.17,2.4,2.4,3.56,3.64s2.28,2.52,3.39,3.8l.1.12v.16c0,1.47,0,2.95,0,4.42l-.56-.31c1.32-.85,2.66-1.67,4-2.5s2.68-1.63,4-2.41Q54.89,31.83,53,33.2c-1.28.91-2.55,1.84-3.84,2.73l-.53.37,0-.67c-.07-1.47-.11-2.94-.15-4.42l.11.28c-1.1-1.29-2.2-2.59-3.25-3.93S43.18,24.88,42.2,23.47Z" transform="translate(-2.83 -3)"/><path class="cls-2" d="M40.67,32.52c1.46,1.25,2.85,2.57,4.23,3.89S47.63,39.1,49,40.47l.13.13v.19c0,1.17-.1,2.34-.18,3.5L48.35,44c1.32-.85,2.66-1.67,4-2.5s2.68-1.63,4-2.41q-1.87,1.44-3.79,2.82c-1.28.91-2.55,1.84-3.84,2.73l-.56.39v-.72c0-1.17,0-2.34.07-3.51l.12.32c-1.33-1.38-2.65-2.77-3.93-4.2S41.88,34,40.67,32.52Z" transform="translate(-2.83 -3)"/><path class="cls-2" d="M41.24,44.14a74.37,74.37,0,0,1,7.38,6.53l.18.18v.26c-.06,1.46-.13,2.92-.23,4.38l-.81-.39c.94-.83,1.9-1.64,2.87-2.44.48-.4,1-.79,1.47-1.18s1-.78,1.5-1.15c-.41.49-.83,1-1.26,1.42s-.85.94-1.28,1.39c-.87.92-1.75,1.81-2.64,2.7l-.81.8v-1.2c0-1.46,0-2.93.09-4.39l.17.44A75.25,75.25,0,0,1,41.24,44.14Z" transform="translate(-2.83 -3)"/><polygon class="cls-2" points="45.89 24.01 52.68 17.99 46.46 24.64 45.89 24.01"/><path class="cls-2" d="M79.85,40c.62,1.7,1.15,3.43,1.67,5.17s1,3.48,1.45,5.23l0,.17-.08.15C82.31,51.82,81.69,53,81,54.11l-.39-.55,5.59-1q2.8-.48,5.61-.88-2.75.72-5.52,1.36L80.79,54.3l-.74.17.36-.72c.58-1.18,1.19-2.34,1.8-3.5l0,.32c-.45-1.75-.89-3.51-1.27-5.28S80.13,41.75,79.85,40Z" transform="translate(-2.83 -3)"/><path class="cls-2" d="M74.19,46.64c.78,1.79,1.46,3.6,2.14,5.42s1.3,3.66,1.92,5.5l.06.18-.09.17c-.54,1-1.08,2.05-1.65,3.06l-.36-.55c1.55-.16,3.1-.28,4.64-.43s3.1-.24,4.65-.32q-2.3.44-4.6.8c-1.54.23-3.07.48-4.61.7l-.67.09.31-.65c.5-1,1-2.08,1.56-3.12l0,.34c-.6-1.85-1.2-3.7-1.74-5.57S74.63,48.54,74.19,46.64Z" transform="translate(-2.83 -3)"/><path class="cls-2" d="M69.2,57.14a77.68,77.68,0,0,1,3.85,9.23l.09.24-.12.23c-.68,1.28-1.36,2.57-2.07,3.83L70.39,70c1.2-.31,2.4-.61,3.61-.88.6-.14,1.21-.26,1.82-.38s1.22-.25,1.83-.35c-.57.25-1.15.48-1.73.7s-1.16.46-1.74.66c-1.17.43-2.34.83-3.52,1.22l-1.07.35.51-1.07c.63-1.31,1.28-2.61,1.94-3.9l0,.47A78.25,78.25,0,0,1,69.2,57.14Z" transform="translate(-2.83 -3)"/><polygon class="cls-2" points="82.72 43.05 91.38 40.75 82.96 43.88 82.72 43.05"/><path class="cls-2" d="M49.63,11.33S47,54.79,47,77.49c0,13.94.27,34.47,2.39,39.29.58,1.33,5.47,2.6,5.52,1.15l-.4-11.87a1.41,1.41,0,0,0-.14-.65c-.87-1.81-5.2-11.75-5.26-30.06C49,56.75,49.63,11.69,49.63,11.33Z" transform="translate(-2.83 -3)"/><path class="cls-3" d="M102.68,77.12C99,82.05,91.31,86.94,84.49,88.73,72.73,91.81,69,96.42,69,96.42c-.74-.53-.7-2.92-1.16-2.17A49.83,49.83,0,0,0,73,81.49c1.54-7,2.75-16.13,16-25.72,2.17-1.56,16.76-5.82,21.09-.15C114.58,61.52,107.21,71,102.68,77.12Z" transform="translate(-2.83 -3)"/><path class="cls-3" d="M16.75,33a45.38,45.38,0,0,0,9.47,27.38C30.53,66,40.45,74.77,40.45,74.77c.75,1.48,4.18-11.8,3.35-30.11-.33-7.36-2.25-14.46-7.14-20.92-1.76-2.32-8.2-9.82-13.77-7.61C17.1,18.41,16.77,30.51,16.75,33Z" transform="translate(-2.83 -3)"/><path class="cls-4" d="M24.93,25.74s11.49,24.4,16.18,45.62c5.71,25.83,8.86,38.55,8.13,43.56-.2,1.38-3.57.76-4.12-1.17S44.3,94.66,38.63,70C34.27,51,24.93,25.74,24.93,25.74Z" transform="translate(-2.83 -3)"/><path class="cls-5" d="M7.19,77.13C11,84.25,16.89,88.31,20.95,90.6A95.25,95.25,0,0,0,35.49,97c.82-.34,2,.2,1.64-.54s1.18-7.37-3.45-19.54A55.22,55.22,0,0,0,23.44,60.46C15.66,53,7.75,52.36,4.88,55.35.77,59.66,3.53,70.21,7.19,77.13Z" transform="translate(-2.83 -3)"/><path class="cls-5" d="M64.18,20.77a41.2,41.2,0,0,0-8.67,17C51.67,56,57,66.7,56.29,74.71c-.16,1.83,1.46,6.21,2.07,3C60,68.9,67.29,63.62,70.78,60.53A36.08,36.08,0,0,0,82.67,39.85c3.18-16.07-1.75-24.48-5-25.7C73.43,12.58,66.66,17.78,64.18,20.77Z" transform="translate(-2.83 -3)"/><path class="cls-4" d="M55.23,83.71c1.54-24,17.19-59.2,17.19-59.2S58.36,59.12,57.48,89.57c-.75,25.84,1.55,22,.38,26.44-1.41,5.37-9.33-.15-9.33-.15s.34-9,.42-7.18c.28,6.24,4.1,10.51,4.85,0C54.47,99.26,54.87,89.37,55.23,83.71Z" transform="translate(-2.83 -3)"/><path class="cls-4" d="M71.22,90.29C62.62,99.93,58.76,108,57.1,112.62l-3.72,3.86-4.77-2.62-1-.94c-1.4-4.14-5.58-10.29-12.15-20a210.81,210.81,0,0,0-26-30.58S22.95,77.2,32.7,92.45c11,17.15,12.12,20.67,13,28,1.22,10.59,13.5,9.75,14.43-.43.67-7.39,2.5-16.94,14-29.74C87,75.93,102.68,61.89,102.68,61.89A222.77,222.77,0,0,0,71.22,90.29Z" transform="translate(-2.83 -3)"/><path class="cls-4" d="M21.73,35.61c1.57.61,3.09,1.3,4.62,2s3,1.45,4.51,2.22l.14.07.06.15c.55,1.36,1.1,2.72,1.63,4.09l-.63-.07c.92-1.3,1.87-2.57,2.8-3.86s1.9-2.55,2.88-3.8q-1.22,2.06-2.5,4.08c-.86,1.34-1.71,2.69-2.58,4l-.36.54L32,44.43c-.59-1.34-1.16-2.69-1.73-4l.2.22c-1.49-.78-3-1.55-4.43-2.39S23.14,36.54,21.73,35.61Z" transform="translate(-2.83 -3)"/><path class="cls-4" d="M23.53,44.28c1.8.6,3.57,1.28,5.33,2s3.5,1.44,5.24,2.2l.17.07.06.18c.37,1.1.75,2.21,1.1,3.32l-.64-.09c.92-1.3,1.87-2.57,2.8-3.86s1.9-2.55,2.88-3.8q-1.22,2.06-2.5,4.08c-.86,1.34-1.71,2.69-2.58,4L35,53l-.26-.67c-.42-1.09-.81-2.18-1.2-3.28l.23.25c-1.73-.77-3.46-1.54-5.16-2.38S25.19,45.21,23.53,44.28Z" transform="translate(-2.83 -3)"/><path class="cls-4" d="M27.28,53.58a71.87,71.87,0,0,1,9.2,3.21l.23.1.08.24c.47,1.38.94,2.76,1.37,4.16l-.89-.05c.58-1.13,1.17-2.26,1.78-3.37.3-.56.62-1.11.94-1.66s.63-1.1,1-1.64c-.2.61-.43,1.21-.66,1.8s-.45,1.2-.69,1.79c-.47,1.19-1,2.36-1.48,3.52l-.46,1.06-.43-1.11c-.52-1.36-1-2.73-1.5-4.11l.32.34A72.47,72.47,0,0,1,27.28,53.58Z" transform="translate(-2.83 -3)"/><path class="cls-4" d="M63.47,28q2.09,4.75,4.12,9.52l0,.1,0,.13c-.32,1.32-.63,2.64-1,3.94l-.56-.54c2-.75,4.1-1.45,6.16-2.16s4.13-1.36,6.23-2l0,.08c-2,.89-4,1.72-6,2.54s-4.05,1.61-6.09,2.36l-.79.29.23-.84c.36-1.3.78-2.6,1.17-3.89v.23Q65.15,32.88,63.39,28Z" transform="translate(-2.83 -3)"/><path class="cls-4" d="M59.2,36.19q2.86,5,5.66,10.13l.07.12,0,.15c-.33,1.12-.64,2.25-1,3.35l-.51-.58c1.78-.42,3.58-.79,5.38-1.16s3.6-.7,5.42-1l0,.08c-1.75.57-3.52,1.07-5.29,1.56s-3.55,1-5.33,1.37l-.76.18.25-.76c.37-1.11.78-2.2,1.17-3.29l0,.28q-2.6-5.19-5.14-10.42Z" transform="translate(-2.83 -3)"/><path class="cls-4" d="M56.9,47.24q2.61,4.24,5.14,8.52l.1.16-.06.21c-.41,1.4-.79,2.81-1.23,4.2l-.76-.75c1.39-.55,2.79-1.07,4.2-1.55s2.84-.93,4.29-1.31l0,.11c-1.32.74-2.66,1.4-4,2.05s-2.72,1.24-4.1,1.81l-1.16.48L59.76,60c.46-1.38,1-2.75,1.48-4.12l0,.38Q59,51.79,56.81,47.3Z" transform="translate(-2.83 -3)"/><polygon class="cls-4" points="26.03 33.83 30.16 25.63 26.79 34.2 26.03 33.83"/><path class="cls-4" d="M7.75,70.12c1.67,0,3.34.16,5,.3s3.32.33,5,.53l.15,0,.1.12c1,1.09,1.91,2.18,2.85,3.29l-.62.15c.45-1.54.93-3.07,1.4-4.6s1-3.06,1.5-4.58q-.49,2.36-1,4.71c-.38,1.56-.75,3.12-1.15,4.68l-.16.64-.45-.49c-1-1.06-2-2.14-2.93-3.22l.26.14c-1.65-.22-3.3-.44-4.95-.73S9.38,70.51,7.75,70.12Z" transform="translate(-2.83 -3)"/><path class="cls-4" d="M12.23,77.68c1.89-.06,3.77,0,5.66,0s3.76.16,5.64.27h.18l.11.15c.71.91,1.41,1.82,2.1,2.75L25.3,81c.45-1.54.93-3.07,1.4-4.6s1-3.06,1.5-4.58q-.49,2.36-1,4.71c-.38,1.56-.75,3.12-1.15,4.68l-.17.68-.46-.54c-.74-.88-1.46-1.78-2.18-2.68l.3.16c-1.88-.13-3.76-.27-5.63-.47S14.1,78,12.23,77.68Z" transform="translate(-2.83 -3)"/><path class="cls-4" d="M18.76,85.15A71.07,71.07,0,0,1,28.47,85h.25l.16.2c.88,1.14,1.77,2.28,2.62,3.45l-.86.26c.18-1.27.38-2.53.6-3.79.1-.63.23-1.26.36-1.89s.24-1.26.39-1.88c0,.64,0,1.29,0,1.93s0,1.28-.08,1.92c-.07,1.28-.16,2.56-.27,3.83l-.1,1.16-.76-.9c-.93-1.1-1.83-2.23-2.73-3.36l.41.21A71.16,71.16,0,0,1,18.76,85.15Z" transform="translate(-2.83 -3)"/><polygon class="cls-4" points="12.04 65.81 13.3 56.65 12.87 65.9 12.04 65.81"/><path class="cls-4" d="M94.25,59.14c.06,1.73,0,3.46,0,5.18s-.15,3.45-.26,5.17v.16l-.11.11c-1,1-2,2.09-3,3.11l-.18-.63c1.51.39,3,.81,4.51,1.21s3,.85,4.49,1.31q-2.31-.38-4.59-.84c-1.52-.32-3.05-.61-4.57-.95l-.62-.14.44-.49c1-1.08,2-2.13,3-3.19l-.12.27c.13-1.72.26-3.44.45-5.15S94,60.85,94.25,59.14Z" transform="translate(-2.83 -3)"/><path class="cls-4" d="M87.2,64.16c.15,2,.21,3.9.26,5.85s0,3.9,0,5.85v.19l-.14.13c-.84.78-1.69,1.56-2.55,2.31l-.16-.65c1.51.39,3,.81,4.51,1.21s3,.85,4.49,1.31Q91.33,80,89,79.53c-1.52-.32-3.05-.61-4.57-.95l-.66-.15.5-.5c.81-.81,1.64-1.6,2.48-2.39l-.14.31c0-1.95.06-3.9.16-5.85S87,66.11,87.2,64.16Z" transform="translate(-2.83 -3)"/><path class="cls-4" d="M80.32,71.29a86.38,86.38,0,0,1,.82,10.49V82l-.17.17c-1,1-2,2-3,2.93l-.38-.86c1.64-.09,3.28-.16,4.92-.2.82,0,1.64,0,2.46,0s1.64,0,2.47,0c-.81.14-1.63.26-2.44.37s-1.63.24-2.44.33c-1.63.21-3.26.38-4.89.55l-1.27.13.9-1c.94-1,1.91-2,2.87-3l-.17.42A86.42,86.42,0,0,1,80.32,71.29Z" transform="translate(-2.83 -3)"/><polygon class="cls-4" points="92.52 64.58 101.95 64.28 92.58 65.44 92.52 64.58"/></svg>