<svg id="Layer_1" data-name="Layer 1" xmlns="http://www.w3.org/2000/svg" viewBox="0 0 138.33 176.01"><defs><style>.cls-1{fill:#6db044;}.cls-2{fill:#619f43;}.cls-3{fill:#89c558;}.cls-4{fill:#538b3f;}</style></defs><title>zucchini</title><path class="cls-1" d="M108.25,11.17c7.06-4.64,15-6.23,22.43-.16,12.83,10.45,12.05,30.25,9.15,44.43a215.43,215.43,0,0,1-26.29,66.37c-15.69,25.37-36.41,49-66.44,58.88-13.6,4.49-38,4-43-14.33C1.28,156.2,6,144.41,16.54,134.82c8.35-7.58,17.77-14,25.52-21.91,8.32-8.54,16.42-17.11,22.59-27.29C72.73,72.26,79.06,58,85.51,43.85,91,31.7,96.45,18.93,108.25,11.17Z" transform="translate(-3.28 -7.04)"/><path class="cls-2" d="M130.68,11a15.93,15.93,0,0,0-13.2-3.72C126.22,10.1,129.73,17,130.62,31,134.13,85.89,40.87,214.85,3.54,163.73a21.91,21.91,0,0,0,.53,2.63c5.06,18.34,29.42,18.83,43,14.33,30-9.92,50.75-33.52,66.44-58.88a215.43,215.43,0,0,0,26.29-66.37C142.74,41.26,143.51,21.46,130.68,11Z" transform="translate(-3.28 -7.04)"/><path class="cls-3" d="M57.29,136.1c1.41-4.31,0-8.58-5.8-10C41.21,123.71,22.7,138.29,18,146.23c-4.41,7.42-1.77,15,7.16,14.56C40.47,160.09,53.7,147,57.29,136.1Z" transform="translate(-3.28 -7.04)"/><circle class="cls-3" cx="115.03" cy="85.86" r="2.54" transform="translate(-25.36 121.29) rotate(-53.95)"/><circle class="cls-3" cx="76.54" cy="82.98" r="2.54" transform="translate(-38.87 88.99) rotate(-53.95)"/><circle class="cls-3" cx="122.24" cy="15.88" r="2.54" transform="translate(34.18 98.32) rotate(-53.95)"/><circle class="cls-3" cx="122.2" cy="41.14" r="2.54" transform="translate(13.74 108.68) rotate(-53.95)"/><circle class="cls-3" cx="133.7" cy="60.2" r="2.54" transform="translate(3.07 125.83) rotate(-53.95)"/><circle class="cls-3" cx="72.86" cy="143.78" r="2.54" transform="matrix(0.59, -0.81, 0.81, 0.59, -89.55, 111.03)"/><circle class="cls-3" cx="99.5" cy="63.55" r="2.54" transform="matrix(0.59, -0.81, 0.81, 0.59, -13.72, 99.55)"/><circle class="cls-3" cx="100.58" cy="131.39" r="2.54" transform="translate(-68.12 128.34) rotate(-53.95)"/><circle class="cls-3" cx="64.68" cy="163.65" r="2.54" transform="translate(-108.98 112.59) rotate(-53.95)"/><circle class="cls-3" cx="37.11" cy="170.5" r="2.54" transform="translate(-125.86 93.12) rotate(-53.95)"/><circle class="cls-3" cx="66.1" cy="109.44" r="2.54" transform="translate(-64.56 91.43) rotate(-53.95)"/><circle class="cls-3" cx="45.78" cy="120.93" r="2.54" transform="translate(-82.21 79.73) rotate(-53.95)"/><circle class="cls-3" cx="88.34" cy="106.71" r="2.54" transform="translate(-53.2 108.28) rotate(-53.95)"/><circle class="cls-3" cx="100.42" cy="32.83" r="2.54" transform="translate(11.5 87.66) rotate(-53.95)"/><path class="cls-4" d="M117.49,7.32l-.33,0a5.09,5.09,0,0,0-1,.2,8.73,8.73,0,0,0-3.2,2c-2.48,2.26-5.2,6.42-8,12S99.07,34,95.64,42,88.4,59.09,83.79,68.77s-10,20-17.41,29.89-17.22,18.53-27.82,26.7c-5.29,4.11-10.79,8.12-16.19,12.4s-10.8,8.81-14.74,14.65a22.37,22.37,0,0,0-3.83,9.71c-.06.86-.33,1.8.18,2.51a11.33,11.33,0,0,0,1.6,2.08,28.23,28.23,0,0,0,4,3.47,40.15,40.15,0,0,0,19.75,7.31,46.1,46.1,0,0,0,20.88-3.18,71.08,71.08,0,0,0,18.15-10.72c11-8.78,19.81-19.59,27.48-30.52a294.41,294.41,0,0,0,20.28-32.78,205.32,205.32,0,0,0,13.61-31.71A114.72,114.72,0,0,0,135.51,40C136,31.37,135,23.66,132.42,18a20.45,20.45,0,0,0-4.66-6.81,13.72,13.72,0,0,0-9-3.81C117.94,7.3,117.49,7.32,117.49,7.32Zm0-.06s.45,0,1.31,0a13.8,13.8,0,0,1,9,3.79,20.6,20.6,0,0,1,4.73,6.83c2.6,5.73,3.67,13.46,3.22,22.16a115.19,115.19,0,0,1-5.59,28.67,192.41,192.41,0,0,1-13.56,31.83A295.07,295.07,0,0,1,96.3,133.37C88.6,144.3,79.75,155.18,68.68,164a71.55,71.55,0,0,1-18.31,10.73,46.5,46.5,0,0,1-21.06,3.13,40.47,40.47,0,0,1-19.89-7.44,28.49,28.49,0,0,1-4-3.52,11.56,11.56,0,0,1-1.63-2.13,2,2,0,0,1-.32-1.33c0-.44.06-.89.12-1.33a22.6,22.6,0,0,1,3.9-9.79c4-5.84,9.43-10.39,14.77-14.72s10.87-8.34,16.14-12.47C48.91,116.88,58.62,108.17,66,98.37a139.32,139.32,0,0,0,9.67-15c2.86-5,5.4-10,7.73-14.8,4.66-9.64,8.52-18.67,12-26.65s6.55-14.93,9.43-20.48,5.61-9.71,8.12-12a8.82,8.82,0,0,1,3.24-2,5.13,5.13,0,0,1,1-.2Z" transform="translate(-3.28 -7.04)"/><path class="cls-4" d="M117.5,7.33c-3.62,7.48-6.75,15.19-9.67,23-1.45,3.9-2.85,7.82-4.15,11.77L99.79,53.93a212.75,212.75,0,0,1-9.13,23.25c-1.75,3.78-3.71,7.46-5.77,11.09-1,1.82-2.14,3.57-3.21,5.36l-3.43,5.23c-2.39,3.41-4.8,6.82-7.51,10a122.25,122.25,0,0,1-8.5,9.16A158.75,158.75,0,0,1,43,133.87c-6.79,4.82-13.88,9.19-20.89,13.67-3.5,2.25-7,4.51-10.29,7a41.77,41.77,0,0,0-4.66,4.11,15.92,15.92,0,0,0-3.44,5.09l0-.17a33.75,33.75,0,0,0,13,7.14A37.32,37.32,0,0,0,31.53,172a48.11,48.11,0,0,0,14.33-4.19A73.19,73.19,0,0,0,58.68,160,113.34,113.34,0,0,0,70,150.13c3.5-3.59,6.89-7.29,10-11.2S86.25,131,89.24,127s5.9-8.12,8.72-12.28a292,292,0,0,0,15.7-25.68,178.35,178.35,0,0,0,12.21-27.47,109.46,109.46,0,0,0,3.87-14.53,69.06,69.06,0,0,0,1.31-15A37.76,37.76,0,0,0,128,17.49a22.11,22.11,0,0,0-4.2-6.19A16.09,16.09,0,0,0,117.5,7.33Zm0-.07a16.17,16.17,0,0,1,6.35,4,22.22,22.22,0,0,1,4.26,6.2,37.94,37.94,0,0,1,3.19,14.66,69.36,69.36,0,0,1-1.23,15,109.79,109.79,0,0,1-3.8,14.6,178.93,178.93,0,0,1-12.09,27.62,286.28,286.28,0,0,1-15.73,25.73q-4.24,6.24-8.74,12.29c-3,4-6,8-9.24,11.93s-6.57,7.63-10.08,11.23A114,114,0,0,1,59,160.44a72.32,72.32,0,0,1-12.93,7.78,48.55,48.55,0,0,1-14.49,4.17,37.72,37.72,0,0,1-15-1.28,34.08,34.08,0,0,1-13.15-7.28l-.08-.07,0-.1a16.22,16.22,0,0,1,3.52-5.18,42.07,42.07,0,0,1,4.71-4.12c3.32-2.53,6.82-4.78,10.33-7,7-4.43,14.12-8.83,20.88-13.68A158.48,158.48,0,0,0,62,117.77a122.69,122.69,0,0,0,8.44-9.17c2.69-3.17,5.07-6.58,7.44-10l3.39-5.23c1.05-1.79,2.17-3.54,3.17-5.36Q87.53,82.6,90.2,77a212.36,212.36,0,0,0,9.25-23.15l4-11.84c1.33-3.94,2.75-7.86,4.23-11.75,3-7.77,6.15-15.48,9.83-22.95v0Z" transform="translate(-3.28 -7.04)"/><path class="cls-4" d="M117.53,7.37a52.07,52.07,0,0,1,.31,12.87,100.76,100.76,0,0,1-1.95,12.84c-.88,4.24-2,8.42-3.31,12.56s-2.73,8.22-4.31,12.26a263.64,263.64,0,0,1-23.5,46.28,195.79,195.79,0,0,1-15.39,20.94,125.74,125.74,0,0,1-18.63,18.1,98.14,98.14,0,0,1-10.84,7.2A78.21,78.21,0,0,1,28.18,156a72.81,72.81,0,0,1-12.58,3.31,45.49,45.49,0,0,0-6.27,1.54,21.07,21.07,0,0,0-5.67,3l0-.33a38.13,38.13,0,0,0,13.58,2,52.21,52.21,0,0,0,13.64-2.1,65,65,0,0,0,12.79-5.26,86,86,0,0,0,11.54-7.66,124.74,124.74,0,0,0,10.37-9.19c3.3-3.24,6.46-6.61,9.51-10.09a228.58,228.58,0,0,0,16.91-22,237.12,237.12,0,0,0,14.17-23.82,205,205,0,0,0,11.14-25.37c3.06-8.71,5.75-17.63,6.63-26.85a49.45,49.45,0,0,0-.4-13.8,28.45,28.45,0,0,0-2-6.6A15.55,15.55,0,0,0,117.53,7.37Zm0-.1a15.53,15.53,0,0,1,4.07,5.57,28.55,28.55,0,0,1,2.09,6.62,49.62,49.62,0,0,1,.48,13.85c-.83,9.25-3.47,18.22-6.5,27a214.49,214.49,0,0,1-25.31,49.32,228.6,228.6,0,0,1-17,21.94c-3.06,3.47-6.25,6.84-9.56,10.07a125.14,125.14,0,0,1-10.43,9.17,85.81,85.81,0,0,1-11.61,7.62,66.19,66.19,0,0,1-12.81,5.33,52.54,52.54,0,0,1-13.7,2.18,38.43,38.43,0,0,1-13.73-2,.18.18,0,0,1-.11-.23.19.19,0,0,1,.06-.09h0a21.47,21.47,0,0,1,5.76-3.06,45.81,45.81,0,0,1,6.32-1.58A72.36,72.36,0,0,0,28,155.59,78.83,78.83,0,0,0,39.64,150a97.67,97.67,0,0,0,10.77-7.17,125.25,125.25,0,0,0,18.54-18,195.31,195.31,0,0,0,15.33-20.89C89,96.6,93.22,89.06,97.16,81.37s7.55-15.57,10.73-23.61q2.4-6,4.38-12.21c1.29-4.12,2.49-8.29,3.39-12.51a100.6,100.6,0,0,0,2-12.8,51.77,51.77,0,0,0-.23-12.93,0,0,0,0,1,0,0Z" transform="translate(-3.28 -7.04)"/></svg>